<svg width="56" height="19" viewBox="0 0 56 19" fill="none" xmlns="http://www.w3.org/2000/svg">
<path d="M11.704 5.728H11.72V14H14.28V1.472H10.84L7.352 9.872L3.8 1.472H0.456V14H3V5.792H3.016L6.488 14H8.216L11.704 5.728ZM19.2864 14.16C20.4224 14.16 21.2704 13.744 21.8464 12.928L21.8784 12.944V14H24.1824V8.704C24.1824 6.464 22.7264 5.264 20.4704 5.264C18.5984 5.264 17.2864 5.936 16.5504 7.296L18.4544 8.432C18.8864 7.664 19.5104 7.28 20.3584 7.28C21.2544 7.28 21.7344 7.744 21.7344 8.336C21.7344 8.752 21.5104 8.96 21.0624 8.96H20.2144C19.2544 8.96 18.4544 9.104 17.6704 9.472C16.9024 9.84 16.4064 10.576 16.4064 11.584V11.616C16.4064 12.384 16.6784 13.008 17.2384 13.472C17.7984 13.936 18.4864 14.16 19.2864 14.16ZM20.0064 12.336C19.3664 12.336 18.9184 12.048 18.9184 11.472C18.9184 10.832 19.4944 10.496 20.2144 10.496H21.7184V10.688C21.7184 11.632 21.0784 12.336 20.0064 12.336ZM26.066 15.824C26.834 17.456 28.274 18.272 30.386 18.272C31.746 18.272 32.85 17.904 33.698 17.152C34.562 16.4 34.994 15.36 34.994 14.032V5.456H32.546V6.496H32.514C31.858 5.712 30.994 5.328 29.922 5.328C28.738 5.328 27.762 5.76 27.01 6.64C26.258 7.504 25.89 8.512 25.89 9.648C25.89 10.864 26.274 11.888 27.042 12.704C27.81 13.52 28.802 13.936 30.018 13.936C31.074 13.936 31.89 13.552 32.482 12.8H32.514V14.096C32.514 15.424 31.666 16.096 30.37 16.096C29.33 16.096 28.578 15.616 28.098 14.656L26.066 15.824ZM32.578 9.648C32.578 10.912 31.666 11.76 30.498 11.76C29.298 11.76 28.418 10.912 28.418 9.648C28.418 8.416 29.33 7.552 30.498 7.552C31.698 7.552 32.578 8.416 32.578 9.648ZM39.8203 0.959999H37.3083V14H39.8203V0.959999ZM41.5928 9.744C41.5928 11.024 42.0408 12.08 42.9368 12.928C43.8328 13.776 44.9368 14.192 46.2488 14.192C47.5448 14.192 48.6488 13.76 49.5608 12.912C50.4728 12.048 50.9208 10.976 50.9208 9.696C50.9208 8.432 50.4728 7.392 49.5768 6.544C48.6808 5.696 47.5768 5.264 46.2808 5.264C44.9848 5.264 43.8648 5.696 42.9528 6.56C42.0408 7.408 41.5928 8.48 41.5928 9.744ZM44.1528 9.712C44.1528 9.088 44.3608 8.56 44.7608 8.16C45.1608 7.744 45.6568 7.536 46.2488 7.536C46.8408 7.536 47.3528 7.744 47.7528 8.16C48.1528 8.56 48.3608 9.088 48.3608 9.712C48.3608 10.992 47.4648 11.904 46.2648 11.904C45.6727 11.904 45.1608 11.696 44.7608 11.296C44.3608 10.88 44.1528 10.352 44.1528 9.712ZM54.0589 14.192C54.5389 14.192 54.9389 14.016 55.2749 13.68C55.6109 13.344 55.7869 12.928 55.7869 12.464C55.7869 11.504 55.0189 10.72 54.0589 10.72C53.0989 10.72 52.3309 11.504 52.3309 12.464C52.3309 12.928 52.5069 13.344 52.8429 13.68C53.1789 14.016 53.5949 14.192 54.0589 14.192Z" fill="white"/>
</svg>
